<mxfile host="app.diagrams.net" modified="2023-05-27T00:40:06.700Z" agent="Mozilla/5.0 (Windows NT 10.0; Win64; x64) AppleWebKit/537.36 (KHTML, like Gecko) Chrome/113.0.0.0 Safari/537.36 Edg/113.0.1774.50" etag="jO0IZRfeloM-KIVHGm6g" version="21.3.4" type="device">
  <diagram name="Page-1" id="4BmoT8BeQsuAn5mq4W0u">
    <mxGraphModel dx="1038" dy="891" grid="1" gridSize="10" guides="1" tooltips="1" connect="1" arrows="1" fold="1" page="1" pageScale="1" pageWidth="827" pageHeight="1169" math="0" shadow="0">
      <root>
        <mxCell id="0" />
        <mxCell id="1" parent="0" />
        <mxCell id="YMVVrYed1Rlv54s3Pt2i-19" value="" style="ellipse;whiteSpace=wrap;html=1;" vertex="1" parent="1">
          <mxGeometry x="860" y="255" width="200" height="325" as="geometry" />
        </mxCell>
        <mxCell id="YMVVrYed1Rlv54s3Pt2i-1" value="" style="rounded=0;whiteSpace=wrap;html=1;" vertex="1" parent="1">
          <mxGeometry x="387" y="245" width="440" height="320" as="geometry" />
        </mxCell>
        <mxCell id="YMVVrYed1Rlv54s3Pt2i-2" value="SCAN - Clustering Model &lt;br&gt;[K = Number of Clusters]" style="rounded=0;whiteSpace=wrap;html=1;" vertex="1" parent="1">
          <mxGeometry x="387" y="245" width="440" height="50" as="geometry" />
        </mxCell>
        <mxCell id="YMVVrYed1Rlv54s3Pt2i-3" value="" style="whiteSpace=wrap;html=1;aspect=fixed;fillColor=#0050ef;strokeColor=#001DBC;fontColor=#ffffff;" vertex="1" parent="1">
          <mxGeometry x="20" y="260" width="270" height="270" as="geometry" />
        </mxCell>
        <mxCell id="YMVVrYed1Rlv54s3Pt2i-4" value="" style="whiteSpace=wrap;html=1;aspect=fixed;fillColor=#60a917;strokeColor=#2D7600;fontColor=#ffffff;" vertex="1" parent="1">
          <mxGeometry x="30" y="270" width="270" height="270" as="geometry" />
        </mxCell>
        <mxCell id="YMVVrYed1Rlv54s3Pt2i-5" value="RGB Image&lt;br&gt;[32 x 32 x 3]" style="whiteSpace=wrap;html=1;aspect=fixed;fillColor=#a20025;strokeColor=#6F0000;fontColor=#ffffff;" vertex="1" parent="1">
          <mxGeometry x="40" y="280" width="270" height="270" as="geometry" />
        </mxCell>
        <mxCell id="YMVVrYed1Rlv54s3Pt2i-6" value="&lt;font color=&quot;#000000&quot;&gt;&lt;b&gt;&lt;font style=&quot;font-size: 13px;&quot;&gt;ResNet18&lt;/font&gt;&lt;/b&gt; - BackBone&lt;br&gt;Feature Extraction&lt;br&gt;[10000]&lt;/font&gt;" style="rounded=1;whiteSpace=wrap;html=1;fillColor=#b1ddf0;strokeColor=#10739e;" vertex="1" parent="1">
          <mxGeometry x="427" y="325" width="170" height="170" as="geometry" />
        </mxCell>
        <mxCell id="YMVVrYed1Rlv54s3Pt2i-7" value="" style="shape=flexArrow;endArrow=classic;html=1;rounded=0;entryX=0;entryY=0.5;entryDx=0;entryDy=0;" edge="1" parent="1" target="YMVVrYed1Rlv54s3Pt2i-6">
          <mxGeometry width="50" height="50" relative="1" as="geometry">
            <mxPoint x="310" y="410" as="sourcePoint" />
            <mxPoint x="380" y="440" as="targetPoint" />
          </mxGeometry>
        </mxCell>
        <mxCell id="YMVVrYed1Rlv54s3Pt2i-8" value="" style="shape=flexArrow;endArrow=classic;html=1;rounded=0;exitX=1;exitY=0.5;exitDx=0;exitDy=0;" edge="1" parent="1" source="YMVVrYed1Rlv54s3Pt2i-6">
          <mxGeometry width="50" height="50" relative="1" as="geometry">
            <mxPoint x="647" y="385" as="sourcePoint" />
            <mxPoint x="667" y="410" as="targetPoint" />
          </mxGeometry>
        </mxCell>
        <mxCell id="YMVVrYed1Rlv54s3Pt2i-9" value="&lt;font color=&quot;#000000&quot;&gt;&lt;b&gt;&lt;font style=&quot;font-size: 13px;&quot;&gt;Cluster Head&lt;/font&gt;&lt;/b&gt;&lt;br&gt;[K]&lt;/font&gt;" style="rounded=1;whiteSpace=wrap;html=1;fillColor=#fad7ac;strokeColor=#b46504;" vertex="1" parent="1">
          <mxGeometry x="667" y="355" width="120" height="120" as="geometry" />
        </mxCell>
        <mxCell id="YMVVrYed1Rlv54s3Pt2i-11" value="&lt;font color=&quot;#030303&quot;&gt;Dense Layer&lt;/font&gt;" style="rounded=1;whiteSpace=wrap;html=1;fillColor=none;strokeColor=#080808;" vertex="1" parent="1">
          <mxGeometry x="667" y="445" width="120" height="30" as="geometry" />
        </mxCell>
        <mxCell id="YMVVrYed1Rlv54s3Pt2i-12" value="&lt;font color=&quot;#030303&quot;&gt;Conv2D&lt;/font&gt;" style="rounded=1;whiteSpace=wrap;html=1;fillColor=none;strokeColor=#080808;" vertex="1" parent="1">
          <mxGeometry x="427" y="465" width="60" height="30" as="geometry" />
        </mxCell>
        <mxCell id="YMVVrYed1Rlv54s3Pt2i-13" value="&lt;font color=&quot;#030303&quot;&gt;BN&lt;/font&gt;" style="rounded=1;whiteSpace=wrap;html=1;fillColor=none;strokeColor=#080808;" vertex="1" parent="1">
          <mxGeometry x="487" y="465" width="30" height="30" as="geometry" />
        </mxCell>
        <mxCell id="YMVVrYed1Rlv54s3Pt2i-14" value="&lt;font color=&quot;#030303&quot;&gt;4 RBs&lt;/font&gt;" style="rounded=1;whiteSpace=wrap;html=1;fillColor=none;strokeColor=#080808;" vertex="1" parent="1">
          <mxGeometry x="517" y="465" width="50" height="30" as="geometry" />
        </mxCell>
        <mxCell id="YMVVrYed1Rlv54s3Pt2i-15" value="&lt;font color=&quot;#030303&quot;&gt;AP&lt;/font&gt;" style="rounded=1;whiteSpace=wrap;html=1;fillColor=none;strokeColor=#080808;" vertex="1" parent="1">
          <mxGeometry x="567" y="465" width="30" height="30" as="geometry" />
        </mxCell>
        <mxCell id="YMVVrYed1Rlv54s3Pt2i-16" value="Conv2D = Convolutional Layer, BN = Batch-Norm Layer, RB = Residual Block, AP = Adaptive Average Pooling Layer" style="text;html=1;strokeColor=none;fillColor=none;align=center;verticalAlign=middle;whiteSpace=wrap;rounded=0;" vertex="1" parent="1">
          <mxGeometry x="397" y="515" width="420" height="40" as="geometry" />
        </mxCell>
        <mxCell id="YMVVrYed1Rlv54s3Pt2i-17" value="" style="shape=flexArrow;endArrow=classic;html=1;rounded=0;" edge="1" parent="1">
          <mxGeometry width="50" height="50" relative="1" as="geometry">
            <mxPoint x="787" y="409.5" as="sourcePoint" />
            <mxPoint x="860" y="410" as="targetPoint" />
          </mxGeometry>
        </mxCell>
        <mxCell id="YMVVrYed1Rlv54s3Pt2i-18" value="" style="ellipse;whiteSpace=wrap;html=1;aspect=fixed;fillColor=#d5e8d4;strokeColor=#82b366;gradientColor=#97d077;" vertex="1" parent="1">
          <mxGeometry x="930" y="280" width="70" height="70" as="geometry" />
        </mxCell>
        <mxCell id="YMVVrYed1Rlv54s3Pt2i-20" value="" style="ellipse;whiteSpace=wrap;html=1;aspect=fixed;fillColor=#fff2cc;gradientColor=#ffd966;strokeColor=#d6b656;" vertex="1" parent="1">
          <mxGeometry x="870" y="370" width="70" height="70" as="geometry" />
        </mxCell>
        <mxCell id="YMVVrYed1Rlv54s3Pt2i-21" value="" style="ellipse;whiteSpace=wrap;html=1;aspect=fixed;fillColor=#dae8fc;gradientColor=#7ea6e0;strokeColor=#6c8ebf;" vertex="1" parent="1">
          <mxGeometry x="980" y="405" width="70" height="70" as="geometry" />
        </mxCell>
        <mxCell id="YMVVrYed1Rlv54s3Pt2i-22" value="" style="ellipse;whiteSpace=wrap;html=1;aspect=fixed;fillColor=#f8cecc;gradientColor=#ea6b66;strokeColor=#b85450;" vertex="1" parent="1">
          <mxGeometry x="910" y="485" width="70" height="70" as="geometry" />
        </mxCell>
        <mxCell id="YMVVrYed1Rlv54s3Pt2i-23" value="Cluster&lt;br&gt;[K]" style="text;html=1;strokeColor=none;fillColor=none;align=center;verticalAlign=middle;whiteSpace=wrap;rounded=0;" vertex="1" parent="1">
          <mxGeometry x="960" y="355" width="90" height="40" as="geometry" />
        </mxCell>
        <mxCell id="YMVVrYed1Rlv54s3Pt2i-24" value="&lt;font style=&quot;font-size: 18px;&quot; color=&quot;#030303&quot;&gt;&lt;b&gt;&lt;i&gt;&lt;u&gt;Deep Learning Model&lt;/u&gt;&lt;/i&gt;&lt;/b&gt;&lt;/font&gt;" style="ellipse;shape=cloud;whiteSpace=wrap;html=1;fillColor=#b1ddf0;strokeColor=#10739e;" vertex="1" parent="1">
          <mxGeometry x="457" y="120" width="300" height="100" as="geometry" />
        </mxCell>
        <mxCell id="YMVVrYed1Rlv54s3Pt2i-25" value="&lt;b style=&quot;color: rgb(3, 3, 3); font-size: 18px;&quot;&gt;&lt;i&gt;&lt;u&gt;Input&lt;/u&gt;&lt;/i&gt;&lt;/b&gt;" style="ellipse;shape=cloud;whiteSpace=wrap;html=1;fillColor=#b1ddf0;strokeColor=#10739e;" vertex="1" parent="1">
          <mxGeometry x="60.13" y="115" width="209.75" height="110" as="geometry" />
        </mxCell>
        <mxCell id="YMVVrYed1Rlv54s3Pt2i-26" value="&lt;b style=&quot;color: rgb(3, 3, 3); font-size: 18px;&quot;&gt;&lt;i&gt;&lt;u&gt;Output&lt;/u&gt;&lt;/i&gt;&lt;/b&gt;" style="ellipse;shape=cloud;whiteSpace=wrap;html=1;fillColor=#b1ddf0;strokeColor=#10739e;" vertex="1" parent="1">
          <mxGeometry x="855.13" y="115" width="209.75" height="110" as="geometry" />
        </mxCell>
      </root>
    </mxGraphModel>
  </diagram>
</mxfile>
